<?xml version="1.0" standalone="no"?>
<!DOCTYPE svg PUBLIC "-//W3C//DTD SVG 20010904//EN"
 "http://www.w3.org/TR/2001/REC-SVG-20010904/DTD/svg10.dtd">
<svg version="1.0" xmlns="http://www.w3.org/2000/svg"
 width="700.000000pt" height="700.000000pt" viewBox="0 0 700.000000 700.000000"
 preserveAspectRatio="xMidYMid meet">
<metadata>
Created by potrace 1.14, written by Peter Selinger 2001-2017
</metadata>
<g transform="translate(0.000000,700.000000) scale(0.100000,-0.100000)"
fill="#000000" stroke="none">
<path d="M3410 6942 c-400 -268 -710 -615 -890 -996 -44 -93 -115 -295 -125
-356 -3 -19 -10 -51 -15 -70 -8 -35 -18 -94 -25 -160 -5 -46 -6 -285 -1 -330
2 -19 7 -87 10 -150 4 -63 9 -135 11 -160 3 -25 7 -90 9 -145 4 -78 2 -91 -5
-60 -46 194 -155 381 -314 540 -122 122 -250 214 -412 296 l-122 62 -38 -33
c-54 -48 -128 -126 -177 -190 -169 -216 -264 -430 -296 -665 -8 -58 -5 -260 4
-300 2 -11 26 -108 51 -215 26 -107 64 -266 85 -352 l37 -158 -599 0 -599 0 4
-977 c2 -538 7 -994 11 -1013 4 -19 9 -44 11 -55 25 -150 88 -341 156 -477
272 -543 779 -897 1384 -967 77 -9 406 -7 422 2 5 3 31 7 58 11 60 7 66 8 178
35 226 55 447 157 795 366 379 227 498 245 762 111 58 -29 170 -92 250 -140
190 -114 459 -246 590 -290 237 -79 405 -105 660 -101 91 2 174 5 185 8 11 3
43 8 70 11 251 34 560 168 788 343 74 57 221 201 284 279 153 188 275 428 333
654 24 92 24 93 35 160 5 25 10 56 13 70 3 14 7 463 9 998 l4 972 -599 0 -599
0 17 73 c10 39 48 198 85 352 85 353 80 326 79 485 -1 148 -17 234 -74 391
-58 161 -193 366 -337 514 -103 106 -88 102 -189 54 -313 -148 -563 -383 -684
-642 -21 -45 -50 -121 -64 -167 l-26 -85 6 95 c3 52 7 115 9 140 2 25 7 97 11
160 3 63 8 135 10 160 5 65 5 302 0 325 -2 11 -7 45 -11 75 -4 30 -9 64 -12
75 -2 11 -6 29 -8 40 -3 11 -7 30 -9 42 -23 114 -103 323 -173 453 -126 234
-351 511 -552 680 -29 25 -67 57 -85 73 -17 15 -49 39 -71 54 -22 16 -42 31
-45 34 -13 15 -176 120 -184 119 0 0 -39 -26 -86 -58z m-1375 -4916 c246 -25
508 -156 686 -343 l71 -75 -87 -84 c-218 -210 -463 -318 -753 -331 -319 -15
-603 96 -849 331 l-87 83 69 73 c89 92 227 196 288 216 9 4 17 10 17 15 0 5 8
9 18 9 10 0 22 4 28 8 34 31 242 89 349 99 39 3 71 6 72 7 4 3 127 -3 178 -8z
m3190 0 c253 -26 518 -160 704 -359 l55 -58 -85 -82 c-159 -156 -316 -246
-528 -303 -77 -21 -125 -27 -241 -30 -80 -2 -167 1 -195 7 -27 5 -62 12 -77
14 -55 10 -194 58 -253 87 -106 53 -226 139 -313 224 l-85 84 72 74 c196 201
444 318 741 349 33 3 142 0 205 -7z"/>
</g>
</svg>
