<?xml version="1.0" encoding="iso-8859-1"?>
<!-- Generator: Adobe Illustrator 19.0.0, SVG Export Plug-In . SVG Version: 6.00 Build 0)  -->
<svg version="1.1" id="Layer_1" xmlns="http://www.w3.org/2000/svg" xmlns:xlink="http://www.w3.org/1999/xlink" x="0px" y="0px"
	 viewBox="0 0 512 512" style="enable-background:new 0 0 512 512;" xml:space="preserve">
<path style="fill:#0DCD9B;" d="M400.497,116.376l-21.504,162.13L424.386,256l12.637-52.382
	C445.575,153.274,401.757,117.389,400.497,116.376z"/>
<path style="fill:#12F8BC;" d="M400.497,116.376c0.698,1.001,22.877,33.207,14.336,83.473c0,0-6.167,25.184-13.335,56.151
	l-47.273,22.697C354.225,278.697,400.474,116.365,400.497,116.376z"/>
<path style="fill:#9CFCE3;" d="M400.474,116.365l-23.743,139.827l-80.547,36.358l40.994-105.888
	C345.853,135.584,400.474,116.353,400.474,116.365z"/>
<path style="fill:#D0A842;" d="M256.011,0.011l43.368,315.955l30.562-49.298c2.453-18.837,5.041-51.65,7.022-80.018
	c2.025-29.055,3.432-53.451,3.432-53.451C340.396,47.52,257.317,0.731,256.011,0.011z"/>
<path style="fill:#E7C05C;" d="M306.637,133.199c0,0-4.265,104.11-7.258,149.009L256,335.287l-33.758-157.493L256,0
	C256.979,0.911,306.637,47.689,306.637,133.199z"/>
<path style="fill:#0DCD9B;" d="M111.551,116.357l33.443,160.094l64.87,13.87l-34.938-103.758
	C166.31,136.229,113.075,116.895,111.551,116.357z"/>
<path style="fill:#12F8BC;" d="M152.741,190.36c-8.6-50.256-40.199-73.29-41.19-74.004c-0.025-0.003,10.139,168.483,10.139,168.483
	l42.082,10.546C157.367,237.577,152.741,190.36,152.741,190.36z"/>
<path style="fill:#9CFCE3;" d="M111.526,116.353l23.939,139.793l-23.926,22.431L87.614,256l-12.511-52.346
	C66.362,152.59,111.523,116.343,111.526,116.353z"/>
<path style="fill:#FFD875;" d="M256,335.287l-73.942-68.619c-2.453-18.837-5.041-51.65-7.022-80.018
	c-2.025-29.055-3.432-53.451-3.432-53.451C171.604,46.845,256,0,256,0V335.287z"/>
<path style="fill:#FFECBA;" d="M256,61.811c21.752,0,39.385,17.633,39.385,39.385S277.752,140.581,256,140.581V61.811z"/>
<path style="fill:#FFFFFF;" d="M256,61.811v78.769c-21.752,0-39.385-17.633-39.385-39.385S234.248,61.811,256,61.811z"/>
<path style="fill:#D23ACB;" d="M478.242,256l-18.286,138.132l-85.285,117.564C377.71,511.899,380.815,512,384,512
	c70.69,0,128-57.31,128-128V256H478.242z"/>
<path style="fill:#F95FF2;" d="M384,256c-67.19,0-99.913,45.529-128,45.529c-28.087,0-60.81-45.529-128-45.529H0v128
	c0,70.69,57.31,128,128,128c67.19,0,99.913-45.529,128-45.529c26.759,0,57.715,41.309,118.671,45.225
	c57.85-4.456,103.57-59.932,103.57-127.696V256H384z M139.253,425.077c-25.679,0-48.758-11.947-64.703-30.945
	c15.945-18.998,39.025-42.198,64.703-42.198s48.758,23.2,64.703,42.198C188.011,413.13,164.932,425.077,139.253,425.077z
	 M372.747,425.077c-25.679,0-48.758-11.947-64.703-30.945c15.945-18.998,39.025-42.198,64.703-42.198
	c25.679,0,48.758,23.2,64.703,42.198C421.505,413.13,398.426,425.077,372.747,425.077z"/>
<g>
	<path style="fill:#D23ACB;" d="M139.253,363.187c25.679,0,48.758,11.947,64.703,30.945c-15.945-32.815-39.025-53.451-64.703-53.451
		s-48.758,20.635-64.703,53.451C90.495,375.133,113.574,363.187,139.253,363.187z"/>
	<path style="fill:#D23ACB;" d="M372.747,363.187c25.679,0,48.758,11.947,64.703,30.945c-15.945-32.815-39.025-53.451-64.703-53.451
		c-25.679,0-48.758,20.635-64.703,53.451C323.989,375.133,347.068,363.187,372.747,363.187z"/>
</g>
<g>
</g>
<g>
</g>
<g>
</g>
<g>
</g>
<g>
</g>
<g>
</g>
<g>
</g>
<g>
</g>
<g>
</g>
<g>
</g>
<g>
</g>
<g>
</g>
<g>
</g>
<g>
</g>
<g>
</g>
</svg>
